<svg width="90px" height="100px" viewBox="0 0 90 100" version="1.1" xmlns="http://www.w3.org/2000/svg" xmlns:xlink="http://www.w3.org/1999/xlink">
    <defs>
        <filter id="filter-1">
            <feColorMatrix in="SourceGraphic" type="matrix" values="0 0 0 0 0.365020 0 0 0 0 0.172001 0 0 0 0 0.741928 0 0 0 1.000000 0"></feColorMatrix>
        </filter>
    </defs>
    <g id="Page-1" stroke="none" stroke-width="1" fill="none" fill-rule="evenodd">
        <g id="Group" transform="translate(-19.000000, -12.000000)" filter="url(#filter-1)">
            <g transform="translate(19.000000, 12.000000)">
                <path d="M90,100 L0,100 L0,90 L90,90 L90,100 M80,85 L10,85 L40.5,3 C41.5,1 43,0 45,0 L75,15 L54.5,15 L80,85 M35,27.5 L40.2,29.85 L42.5,35 L44.85,29.85 L50,27.5 L44.85,25.15 L42.5,20 L40.2,25.15 L35,27.5 M50,65 L39.7,60.35 L35,50 L30.35,60.35 L20,65 L30.35,69.65 L35,80 L39.7,69.65 L50,65 M54.85,49.85 L60,47.5 L54.85,45.15 L52.5,40 L50.2,45.15 L45,47.5 L50.2,49.85 L52.5,55 L54.85,49.85 M64.85,69.85 L70,67.5 L64.85,65.15 L62.5,60 L60.2,65.15 L55,67.5 L60.2,69.85 L62.5,75 L64.85,69.85 Z" id="Shape" fill="#000000" fill-rule="nonzero"></path>
            </g>
        </g>
    </g>
</svg>